<mxfile host="app.diagrams.net" agent="Mozilla/5.0 (Windows NT 10.0; Win64; x64) AppleWebKit/537.36 (KHTML, like Gecko) Chrome/139.0.0.0 Safari/537.36 Edg/139.0.0.0" version="28.1.1">
  <diagram name="Page-1" id="44CcDGy5Is93uQxQAeXa">
    <mxGraphModel dx="1260" dy="659" grid="1" gridSize="10" guides="1" tooltips="1" connect="1" arrows="1" fold="1" page="1" pageScale="1" pageWidth="850" pageHeight="1100" math="0" shadow="0">
      <root>
        <mxCell id="0" />
        <mxCell id="1" parent="0" />
        <mxCell id="eWdyq1M9fAobNUnSN73y-1" value="User" style="whiteSpace=wrap;strokeWidth=2;" vertex="1" parent="1">
          <mxGeometry x="326" y="32" width="92" height="54" as="geometry" />
        </mxCell>
        <mxCell id="eWdyq1M9fAobNUnSN73y-2" value="Repo local / Workspace" style="whiteSpace=wrap;strokeWidth=2;" vertex="1" parent="1">
          <mxGeometry x="659" y="32" width="228" height="54" as="geometry" />
        </mxCell>
        <mxCell id="eWdyq1M9fAobNUnSN73y-3" value="PDF scanat&#xa;input/*.pdf" style="whiteSpace=wrap;strokeWidth=2;" vertex="1" parent="1">
          <mxGeometry x="468" y="20" width="141" height="78" as="geometry" />
        </mxCell>
        <mxCell id="eWdyq1M9fAobNUnSN73y-4" value="OCR-&amp;gt;Markdown Pipeline&#xa;ocrmd CLI" style="whiteSpace=wrap;strokeWidth=2;" vertex="1" parent="1">
          <mxGeometry x="454" y="170" width="238" height="78" as="geometry" />
        </mxCell>
        <mxCell id="eWdyq1M9fAobNUnSN73y-5" value="Tesseract OCR" style="whiteSpace=wrap;strokeWidth=2;" vertex="1" parent="1">
          <mxGeometry x="492" y="333" width="161" height="54" as="geometry" />
        </mxCell>
        <mxCell id="eWdyq1M9fAobNUnSN73y-6" value="PyMuPDF (fitz)" style="whiteSpace=wrap;strokeWidth=2;" vertex="1" parent="1">
          <mxGeometry x="20" y="333" width="165" height="54" as="geometry" />
        </mxCell>
        <mxCell id="eWdyq1M9fAobNUnSN73y-7" value="pdf2image + Poppler" style="whiteSpace=wrap;strokeWidth=2;" vertex="1" parent="1">
          <mxGeometry x="235" y="333" width="207" height="54" as="geometry" />
        </mxCell>
        <mxCell id="eWdyq1M9fAobNUnSN73y-8" value="File System&#xa;output/*" style="whiteSpace=wrap;strokeWidth=2;" vertex="1" parent="1">
          <mxGeometry x="704" y="321" width="142" height="78" as="geometry" />
        </mxCell>
        <mxCell id="eWdyq1M9fAobNUnSN73y-9" value="GitHub Actions CI" style="whiteSpace=wrap;strokeWidth=2;" vertex="1" parent="1">
          <mxGeometry x="895" y="333" width="185" height="54" as="geometry" />
        </mxCell>
        <mxCell id="eWdyq1M9fAobNUnSN73y-10" value="ruleazÄƒ comenzi" style="curved=1;startArrow=none;endArrow=block;exitX=0.5;exitY=1;entryX=0.06;entryY=0.01;rounded=0;" edge="1" parent="1" source="eWdyq1M9fAobNUnSN73y-1" target="eWdyq1M9fAobNUnSN73y-4">
          <mxGeometry relative="1" as="geometry">
            <Array as="points">
              <mxPoint x="372" y="134" />
            </Array>
          </mxGeometry>
        </mxCell>
        <mxCell id="eWdyq1M9fAobNUnSN73y-11" value="" style="curved=1;startArrow=none;endArrow=block;exitX=0.5;exitY=1;entryX=0.43;entryY=0.01;rounded=0;" edge="1" parent="1" source="eWdyq1M9fAobNUnSN73y-3" target="eWdyq1M9fAobNUnSN73y-4">
          <mxGeometry relative="1" as="geometry">
            <Array as="points">
              <mxPoint x="539" y="134" />
            </Array>
          </mxGeometry>
        </mxCell>
        <mxCell id="eWdyq1M9fAobNUnSN73y-12" value="" style="curved=1;startArrow=none;endArrow=block;exitX=0.5;exitY=1;entryX=0.94;entryY=0.01;rounded=0;" edge="1" parent="1" source="eWdyq1M9fAobNUnSN73y-2" target="eWdyq1M9fAobNUnSN73y-4">
          <mxGeometry relative="1" as="geometry">
            <Array as="points">
              <mxPoint x="774" y="134" />
            </Array>
          </mxGeometry>
        </mxCell>
        <mxCell id="eWdyq1M9fAobNUnSN73y-13" value="extragere pagini" style="curved=1;startArrow=none;endArrow=block;exitX=0;exitY=0.75;entryX=0.5;entryY=0;rounded=0;" edge="1" parent="1" source="eWdyq1M9fAobNUnSN73y-4" target="eWdyq1M9fAobNUnSN73y-6">
          <mxGeometry relative="1" as="geometry">
            <Array as="points">
              <mxPoint x="103" y="285" />
            </Array>
          </mxGeometry>
        </mxCell>
        <mxCell id="eWdyq1M9fAobNUnSN73y-14" value="fallback rasterizare" style="curved=1;startArrow=none;endArrow=block;exitX=0;exitY=1;entryX=0.5;entryY=0;rounded=0;" edge="1" parent="1" source="eWdyq1M9fAobNUnSN73y-4" target="eWdyq1M9fAobNUnSN73y-7">
          <mxGeometry relative="1" as="geometry">
            <Array as="points">
              <mxPoint x="339" y="285" />
            </Array>
          </mxGeometry>
        </mxCell>
        <mxCell id="eWdyq1M9fAobNUnSN73y-15" value="OCR multi-PSM" style="curved=1;startArrow=none;endArrow=block;exitX=0.5;exitY=1.01;entryX=0.5;entryY=0;rounded=0;" edge="1" parent="1" source="eWdyq1M9fAobNUnSN73y-4" target="eWdyq1M9fAobNUnSN73y-5">
          <mxGeometry relative="1" as="geometry">
            <Array as="points" />
          </mxGeometry>
        </mxCell>
        <mxCell id="eWdyq1M9fAobNUnSN73y-16" value="scrie rezultate + rapoarte" style="curved=1;startArrow=none;endArrow=block;exitX=0.94;exitY=1.01;entryX=0.5;entryY=0;rounded=0;" edge="1" parent="1" source="eWdyq1M9fAobNUnSN73y-4" target="eWdyq1M9fAobNUnSN73y-8">
          <mxGeometry relative="1" as="geometry">
            <Array as="points">
              <mxPoint x="774" y="285" />
            </Array>
          </mxGeometry>
        </mxCell>
        <mxCell id="eWdyq1M9fAobNUnSN73y-17" value="artefacte &amp; teste" style="curved=1;startArrow=none;endArrow=block;exitX=1;exitY=0.78;entryX=0.5;entryY=0;rounded=0;" edge="1" parent="1" source="eWdyq1M9fAobNUnSN73y-4" target="eWdyq1M9fAobNUnSN73y-9">
          <mxGeometry relative="1" as="geometry">
            <Array as="points">
              <mxPoint x="988" y="285" />
            </Array>
          </mxGeometry>
        </mxCell>
      </root>
    </mxGraphModel>
  </diagram>
</mxfile>
